<?xml version="1.0" encoding="utf-8"?>
<!-- Generator: Adobe Illustrator 27.9.1, SVG Export Plug-In . SVG Version: 6.00 Build 0)  -->
<svg version="1.1" id="Layer_1" xmlns="http://www.w3.org/2000/svg" xmlns:xlink="http://www.w3.org/1999/xlink" x="0px" y="0px"
	 viewBox="0 0 96 44.2" style="enable-background:new 0 0 96 44.2;" xml:space="preserve">
<style type="text/css">
	.st0{fill-rule:evenodd;clip-rule:evenodd;}
</style>
<g>
	<path class="st0" d="M12.1,34.7c0.2,0.3,0.4,0.6,0.7,0.9l0,0c0,0,0.2,0.2,0.5,0.5c1.7,1.4,2.2,1.2,3.9-0.8l2.2-2.5l-2.7-23h-4.9
		L9.2,31.5C10.5,32.4,11.4,33.5,12.1,34.7z"/>
	<path class="st0" d="M14.2,9.4L14.2,9.4c0-5.2,4.2-9.4,9.4-9.4h0v0C23.6,5.2,19.4,9.4,14.2,9.4L14.2,9.4z"/>
	<g>
		<path class="st0" d="M12.9,36.2c2.2,1.9,2.6,1.9,4.5-0.3l5.2-6c2.5,2.2,4.1,3.2,1.7,6L22,38.4C17.8,41.4,12.9,36.2,12.9,36.2z"/>
		<path class="st0" d="M13,36.8L13,36.8c-0.3-0.2-0.5-0.5-0.7-0.9c-1.9-3.2-5.8-6.1-12.3-4.4c3.8,1.2,1.9,6.5,7.7,8.4
			c1,0.3,1.9,0.9,2.7,1.6l1.6,1.4c2.7,2.4,5.7,1.2,7.2-0.6L22,39C17.8,42,13,36.8,13,36.8z M10.1,38.2c-2.4-2.9-4.2-4.5-8-6.1l0,0
			c2.8,0.8,4.5,1.9,6.3,3.6c1.3,1.2,2.4,2.7,3.2,4.3L10.1,38.2z"/>
	</g>
</g>
<g>
	<path d="M37.5,4.7h-3v1.9h3.6v1.5h-5.5V0.1h5.5v1.5h-3.6v1.7h3V4.7z"/>
	<path d="M45.1,0.1v5.2c0,0.6-0.1,1.1-0.4,1.5c-0.3,0.4-0.6,0.8-1.1,1c-0.5,0.2-1,0.3-1.7,0.3c-1,0-1.7-0.3-2.3-0.8
		c-0.6-0.5-0.8-1.2-0.9-2.1V0.1h1.9v5.3c0,0.9,0.4,1.3,1.2,1.3c0.4,0,0.7-0.1,0.9-0.3c0.2-0.2,0.3-0.6,0.3-1.1V0.1H45.1z"/>
	<path d="M49.2,5.2h-1v2.8h-1.9V0.1h3.1c0.9,0,1.7,0.2,2.2,0.6c0.5,0.4,0.8,1,0.8,1.8c0,0.6-0.1,1-0.3,1.4c-0.2,0.4-0.6,0.7-1.1,0.9
		L52.7,8v0.1h-2.1L49.2,5.2z M48.2,3.8h1.2c0.4,0,0.6-0.1,0.8-0.3c0.2-0.2,0.3-0.5,0.3-0.8s-0.1-0.6-0.3-0.8
		c-0.2-0.2-0.5-0.3-0.8-0.3h-1.2V3.8z"/>
	<path d="M60.3,4.2c0,0.8-0.1,1.5-0.4,2.1c-0.3,0.6-0.7,1.1-1.2,1.4c-0.5,0.3-1.1,0.5-1.8,0.5c-0.7,0-1.3-0.2-1.8-0.5
		c-0.5-0.3-0.9-0.8-1.2-1.3c-0.3-0.6-0.4-1.2-0.5-2V3.9c0-0.8,0.1-1.5,0.4-2.1C54,1.3,54.4,0.8,55,0.5C55.5,0.2,56.1,0,56.8,0
		c0.7,0,1.3,0.2,1.8,0.5c0.5,0.3,0.9,0.8,1.2,1.4c0.3,0.6,0.4,1.3,0.4,2V4.2z M58.3,3.9c0-0.8-0.1-1.4-0.4-1.8
		c-0.3-0.4-0.6-0.6-1.1-0.6c-1,0-1.5,0.7-1.5,2.2l0,0.6c0,0.8,0.1,1.4,0.4,1.8c0.3,0.4,0.6,0.6,1.2,0.6c0.5,0,0.9-0.2,1.1-0.6
		c0.3-0.4,0.4-1,0.4-1.8V3.9z"/>
	<path d="M63.2,5.4v2.7h-1.9V0.1h3.2c0.6,0,1.1,0.1,1.6,0.3c0.5,0.2,0.8,0.5,1.1,1c0.3,0.4,0.4,0.9,0.4,1.4c0,0.8-0.3,1.4-0.8,1.9
		c-0.6,0.5-1.3,0.7-2.3,0.7H63.2z M63.2,3.9h1.3c0.4,0,0.7-0.1,0.8-0.3c0.2-0.2,0.3-0.4,0.3-0.8c0-0.4-0.1-0.7-0.3-0.9
		c-0.2-0.2-0.5-0.3-0.8-0.3h-1.3V3.9z"/>
	<path d="M73.5,4.7h-3v1.9H74v1.5h-5.5V0.1H74v1.5h-3.6v1.7h3V4.7z"/>
	<path d="M79.3,6.6h-2.6l-0.5,1.5h-2l2.9-7.9h1.8l2.9,7.9h-2.1L79.3,6.6z M77.1,5.1h1.7L78,2.3L77.1,5.1z"/>
	<path d="M89,8.1h-1.9l-2.8-4.9v4.9h-1.9V0.1h1.9l2.8,4.9V0.1H89V8.1z"/>
</g>
<g>
	<path d="M34.6,20.1h-1.9v-7.9h1.9V20.1z"/>
	<path d="M42.6,20.1h-1.9l-2.8-4.9v4.9h-1.9v-7.9h1.9l2.8,4.9v-4.9h1.9V20.1z"/>
	<path d="M43.8,20.1v-7.9h2.6c0.7,0,1.3,0.2,1.9,0.5s1,0.8,1.3,1.3c0.3,0.6,0.5,1.2,0.5,2v0.4c0,0.7-0.2,1.4-0.5,2
		c-0.3,0.6-0.7,1-1.3,1.4c-0.6,0.3-1.2,0.5-1.9,0.5H43.8z M45.7,13.6v5h0.7c0.5,0,1-0.2,1.3-0.6c0.3-0.4,0.4-1,0.4-1.7v-0.3
		c0-0.8-0.1-1.3-0.4-1.7c-0.3-0.4-0.7-0.6-1.3-0.6H45.7z"/>
	<path d="M57.2,12.1v5.2c0,0.6-0.1,1.1-0.4,1.5c-0.3,0.4-0.6,0.8-1.1,1c-0.5,0.2-1,0.3-1.7,0.3c-1,0-1.7-0.3-2.3-0.8
		c-0.6-0.5-0.8-1.2-0.9-2.1v-5.2h1.9v5.3c0,0.9,0.4,1.3,1.2,1.3c0.4,0,0.7-0.1,0.9-0.3c0.2-0.2,0.3-0.6,0.3-1.1v-5.2H57.2z"/>
	<path d="M62.5,17.9c0-0.3-0.1-0.5-0.3-0.7c-0.2-0.2-0.5-0.3-1-0.5c-0.5-0.2-0.9-0.3-1.2-0.5c-1-0.5-1.5-1.2-1.5-2.1
		c0-0.4,0.1-0.8,0.4-1.2c0.3-0.3,0.6-0.6,1.1-0.8c0.5-0.2,1-0.3,1.6-0.3c0.6,0,1.1,0.1,1.5,0.3c0.5,0.2,0.8,0.5,1.1,0.9
		c0.3,0.4,0.4,0.8,0.4,1.3h-1.9c0-0.3-0.1-0.6-0.3-0.8c-0.2-0.2-0.5-0.3-0.8-0.3c-0.3,0-0.6,0.1-0.8,0.2c-0.2,0.2-0.3,0.3-0.3,0.6
		c0,0.2,0.1,0.4,0.3,0.6c0.2,0.2,0.6,0.3,1.2,0.5c0.5,0.2,1,0.4,1.4,0.6c0.9,0.5,1.3,1.2,1.3,2c0,0.7-0.3,1.2-0.8,1.6
		c-0.5,0.4-1.2,0.6-2.2,0.6c-0.6,0-1.2-0.1-1.7-0.3c-0.5-0.2-0.9-0.5-1.2-0.9c-0.3-0.4-0.4-0.9-0.4-1.4h1.9c0,0.4,0.1,0.7,0.3,0.9
		c0.2,0.2,0.6,0.3,1.1,0.3c0.3,0,0.6-0.1,0.8-0.2C62.4,18.4,62.5,18.2,62.5,17.9z"/>
	<path d="M71.7,13.6h-2.4v6.5h-1.9v-6.5H65v-1.5h6.6V13.6z"/>
	<path d="M75.4,17.2h-1v2.8h-1.9v-7.9h3.1c0.9,0,1.7,0.2,2.2,0.6c0.5,0.4,0.8,1,0.8,1.8c0,0.6-0.1,1-0.3,1.4
		c-0.2,0.4-0.6,0.7-1.1,0.9l1.7,3.2v0.1h-2.1L75.4,17.2z M74.4,15.8h1.2c0.4,0,0.6-0.1,0.8-0.3c0.2-0.2,0.3-0.5,0.3-0.8
		c0-0.3-0.1-0.6-0.3-0.8c-0.2-0.2-0.5-0.3-0.8-0.3h-1.2V15.8z"/>
	<path d="M81.8,20.1h-1.9v-7.9h1.9V20.1z"/>
	<path d="M87.7,18.6H85l-0.5,1.5h-2l2.9-7.9h1.8l2.9,7.9h-2.1L87.7,18.6z M85.5,17.1h1.7l-0.9-2.8L85.5,17.1z"/>
	<path d="M92.7,18.6H96v1.5h-5.2v-7.9h1.9V18.6z"/>
</g>
<g>
	<path d="M37.5,28.7h-3v1.9H38V32h-5.5v-7.9H38v1.5h-3.6v1.7h3V28.7z"/>
	<path d="M41.3,24.1l1.8,5.5l1.8-5.5h2.5V32h-1.9v-1.9l0.2-3.8L43.7,32h-1.3l-1.9-5.7l0.2,3.8V32h-1.9v-7.9H41.3z"/>
	<path d="M50.7,32h-1.9v-7.9h1.9V32z"/>
	<path d="M56.1,29.9c0-0.3-0.1-0.5-0.3-0.7c-0.2-0.2-0.5-0.3-1-0.5c-0.5-0.2-0.9-0.3-1.2-0.5c-1-0.5-1.5-1.2-1.5-2.1
		c0-0.4,0.1-0.8,0.4-1.2c0.3-0.3,0.6-0.6,1.1-0.8c0.5-0.2,1-0.3,1.6-0.3c0.6,0,1.1,0.1,1.5,0.3c0.5,0.2,0.8,0.5,1.1,0.9
		c0.3,0.4,0.4,0.8,0.4,1.3h-1.9c0-0.3-0.1-0.6-0.3-0.8c-0.2-0.2-0.5-0.3-0.8-0.3c-0.3,0-0.6,0.1-0.8,0.2c-0.2,0.2-0.3,0.3-0.3,0.6
		c0,0.2,0.1,0.4,0.3,0.6c0.2,0.2,0.6,0.3,1.2,0.5c0.5,0.2,1,0.4,1.4,0.6c0.9,0.5,1.3,1.2,1.3,2c0,0.7-0.3,1.2-0.8,1.6
		c-0.5,0.4-1.2,0.6-2.2,0.6c-0.6,0-1.2-0.1-1.7-0.3c-0.5-0.2-0.9-0.5-1.2-0.9c-0.3-0.4-0.4-0.9-0.4-1.4h1.9c0,0.4,0.1,0.7,0.3,0.9
		c0.2,0.2,0.6,0.3,1.1,0.3c0.3,0,0.6-0.1,0.8-0.2C56,30.4,56.1,30.2,56.1,29.9z"/>
	<path d="M63.1,29.9c0-0.3-0.1-0.5-0.3-0.7c-0.2-0.2-0.5-0.3-1-0.5c-0.5-0.2-0.9-0.3-1.2-0.5c-1-0.5-1.5-1.2-1.5-2.1
		c0-0.4,0.1-0.8,0.4-1.2c0.3-0.3,0.6-0.6,1.1-0.8c0.5-0.2,1-0.3,1.6-0.3c0.6,0,1.1,0.1,1.5,0.3c0.5,0.2,0.8,0.5,1.1,0.9
		c0.3,0.4,0.4,0.8,0.4,1.3h-1.9c0-0.3-0.1-0.6-0.3-0.8c-0.2-0.2-0.5-0.3-0.8-0.3c-0.3,0-0.6,0.1-0.8,0.2c-0.2,0.2-0.3,0.3-0.3,0.6
		c0,0.2,0.1,0.4,0.3,0.6c0.2,0.2,0.6,0.3,1.2,0.5c0.5,0.2,1,0.4,1.4,0.6c0.9,0.5,1.3,1.2,1.3,2c0,0.7-0.3,1.2-0.8,1.6
		c-0.5,0.4-1.2,0.6-2.2,0.6c-0.6,0-1.2-0.1-1.7-0.3c-0.5-0.2-0.9-0.5-1.2-0.9c-0.3-0.4-0.4-0.9-0.4-1.4h1.9c0,0.4,0.1,0.7,0.3,0.9
		c0.2,0.2,0.6,0.3,1.1,0.3c0.3,0,0.6-0.1,0.8-0.2C63,30.4,63.1,30.2,63.1,29.9z"/>
	<path d="M68,32h-1.9v-7.9H68V32z"/>
	<path d="M76.1,28.2c0,0.8-0.1,1.5-0.4,2.1c-0.3,0.6-0.7,1.1-1.2,1.4c-0.5,0.3-1.1,0.5-1.8,0.5s-1.3-0.2-1.8-0.5
		c-0.5-0.3-0.9-0.8-1.2-1.3c-0.3-0.6-0.4-1.2-0.5-2v-0.4c0-0.8,0.1-1.5,0.4-2.1c0.3-0.6,0.7-1.1,1.2-1.4c0.5-0.3,1.1-0.5,1.8-0.5
		c0.7,0,1.3,0.2,1.8,0.5c0.5,0.3,0.9,0.8,1.2,1.4c0.3,0.6,0.4,1.3,0.4,2V28.2z M74.1,27.9c0-0.8-0.1-1.4-0.4-1.8
		c-0.3-0.4-0.6-0.6-1.1-0.6c-1,0-1.5,0.7-1.5,2.2l0,0.6c0,0.8,0.1,1.4,0.4,1.8c0.3,0.4,0.6,0.6,1.2,0.6c0.5,0,0.9-0.2,1.1-0.6
		c0.3-0.4,0.4-1,0.4-1.8V27.9z"/>
	<path d="M83.7,32h-1.9L79,27.1V32h-1.9v-7.9H79l2.8,4.9v-4.9h1.9V32z"/>
	<path d="M89,29.9c0-0.3-0.1-0.5-0.3-0.7c-0.2-0.2-0.5-0.3-1-0.5c-0.5-0.2-0.9-0.3-1.2-0.5c-1-0.5-1.5-1.2-1.5-2.1
		c0-0.4,0.1-0.8,0.4-1.2c0.3-0.3,0.6-0.6,1.1-0.8c0.5-0.2,1-0.3,1.6-0.3c0.6,0,1.1,0.1,1.5,0.3c0.5,0.2,0.8,0.5,1.1,0.9
		c0.3,0.4,0.4,0.8,0.4,1.3H89c0-0.3-0.1-0.6-0.3-0.8c-0.2-0.2-0.5-0.3-0.8-0.3c-0.3,0-0.6,0.1-0.8,0.2c-0.2,0.2-0.3,0.3-0.3,0.6
		c0,0.2,0.1,0.4,0.3,0.6c0.2,0.2,0.6,0.3,1.2,0.5c0.5,0.2,1,0.4,1.4,0.6c0.9,0.5,1.3,1.2,1.3,2c0,0.7-0.3,1.2-0.8,1.6
		c-0.5,0.4-1.2,0.6-2.2,0.6c-0.6,0-1.2-0.1-1.7-0.3c-0.5-0.2-0.9-0.5-1.2-0.9c-0.3-0.4-0.4-0.9-0.4-1.4h1.9c0,0.4,0.1,0.7,0.3,0.9
		c0.2,0.2,0.6,0.3,1.1,0.3c0.3,0,0.6-0.1,0.8-0.2C88.9,30.4,89,30.2,89,29.9z"/>
</g>
<g>
	<path d="M34.5,41.3V44h-1.9v-7.9h3.2c0.6,0,1.1,0.1,1.6,0.3c0.5,0.2,0.8,0.5,1.1,1c0.3,0.4,0.4,0.9,0.4,1.4c0,0.8-0.3,1.4-0.8,1.9
		c-0.6,0.5-1.3,0.7-2.3,0.7H34.5z M34.5,39.9h1.3c0.4,0,0.7-0.1,0.8-0.3c0.2-0.2,0.3-0.4,0.3-0.8c0-0.4-0.1-0.7-0.3-0.9
		c-0.2-0.2-0.5-0.3-0.8-0.3h-1.3V39.9z"/>
	<path d="M46.6,40.2c0,0.8-0.1,1.5-0.4,2.1c-0.3,0.6-0.7,1.1-1.2,1.4c-0.5,0.3-1.1,0.5-1.8,0.5s-1.3-0.2-1.8-0.5
		c-0.5-0.3-0.9-0.8-1.2-1.3c-0.3-0.6-0.4-1.2-0.5-2v-0.4c0-0.8,0.1-1.5,0.4-2.1c0.3-0.6,0.7-1.1,1.2-1.4c0.5-0.3,1.1-0.5,1.8-0.5
		c0.7,0,1.3,0.2,1.8,0.5c0.5,0.3,0.9,0.8,1.2,1.4c0.3,0.6,0.4,1.3,0.4,2V40.2z M44.6,39.9c0-0.8-0.1-1.4-0.4-1.8
		c-0.3-0.4-0.6-0.6-1.1-0.6c-1,0-1.5,0.7-1.5,2.2l0,0.6c0,0.8,0.1,1.4,0.4,1.8s0.6,0.6,1.2,0.6c0.5,0,0.9-0.2,1.1-0.6
		c0.3-0.4,0.4-1,0.4-1.8V39.9z"/>
	<path d="M50.5,41.2h-1V44h-1.9v-7.9h3.1c0.9,0,1.7,0.2,2.2,0.6c0.5,0.4,0.8,1,0.8,1.8c0,0.6-0.1,1-0.3,1.4
		c-0.2,0.4-0.6,0.7-1.1,0.9L54,44V44h-2.1L50.5,41.2z M49.5,39.8h1.2c0.4,0,0.6-0.1,0.8-0.3c0.2-0.2,0.3-0.5,0.3-0.8
		s-0.1-0.6-0.3-0.8c-0.2-0.2-0.5-0.3-0.8-0.3h-1.2V39.8z"/>
	<path d="M60.8,37.6h-2.4V44h-1.9v-6.5h-2.3v-1.5h6.6V37.6z"/>
	<path d="M65.5,42.6h-2.6L62.4,44h-2l2.9-7.9h1.8L68,44h-2.1L65.5,42.6z M63.3,41.1H65l-0.9-2.8L63.3,41.1z"/>
	<path d="M70.5,42.6h3.3V44h-5.2v-7.9h1.9V42.6z"/>
</g>
</svg>
