<?xml version="1.0" encoding="utf-8"?>
<!-- Generator: Adobe Illustrator 19.2.1, SVG Export Plug-In . SVG Version: 6.00 Build 0)  -->
<svg width="100" height ="50" version="1.1" id="layer" xmlns="http://www.w3.org/2000/svg" xmlns:xlink="http://www.w3.org/1999/xlink" x="0px" y="0px"
	 viewBox="0 0 652 652" style="enable-background:new 0 0 652 652;" xml:space="preserve">
<style type="text/css">
	.st0{fill:#5397B2;}
	.st1{fill:#FFFFFF;}
	.st2{fill:#E9776D;}
	.st3{fill:#00415C;}
</style>
<rect x="-28" y="71" class="st0" width="700" height="500"/>
<path class="st1" d="M95.8,460.9c26.5,8.4,78.9,0.2,142.1-21.3c-46.9,15.5-88,23.6-118.2,23.5C110.7,463.2,102.7,462.4,95.8,460.9z"
	/>
<path class="st2" d="M335.8,180.9c-44.9,0-81.3,37.4-81.3,83.7h94c30.8,0,57.5-17.6,71.4-43.5c2-3.8,3.7-7.7,5.2-11.8
	c3.1-8.8,4.8-18.4,4.8-28.3L335.8,180.9L335.8,180.9z"/>
<path class="st3" d="M281.4,274.2H251l-0.1,1l-1.1,12l-16.2,174.1h65L281.4,274.2z"/>
<path class="st1" d="M349.2,312.6h-21.5v-38.4h21.5v6.7h-13.6v8.4h12.6v6.7h-12.6v9.9h13.6V312.6z M376.5,312.6l-1.1-3.8H375
	c-0.9,1.4-2,2.4-3.6,3.2c-1.5,0.7-3.3,1.1-5.2,1.1c-3.4,0-5.9-0.9-7.6-2.8c-1.7-1.8-2.6-4.5-2.6-8v-19.1h7.8v17.1
	c0,2.1,0.4,3.7,1.1,4.8c0.8,1.1,1.9,1.6,3.5,1.6c2.2,0,3.8-0.7,4.7-2.3c1-1.5,1.4-4,1.4-7.4v-13.8h7.8v29.3H376.5L376.5,312.6z
	 M406.6,282.7c1.1,0,1.9,0.1,2.6,0.3l-0.6,7.5c-0.6-0.2-1.4-0.3-2.3-0.3c-2.5,0-4.4,0.7-5.8,2c-1.4,1.3-2.1,3.1-2.1,5.5v14.9h-7.8
	v-29.3h5.9l1.1,4.9h0.4c0.9-1.7,2.1-3,3.6-4C403.2,283.2,404.9,282.7,406.6,282.7z M440.4,297.9c0,4.8-1.2,8.5-3.7,11.2
	c-2.4,2.7-5.9,4-10.3,4c-2.8,0-5.1-0.6-7.3-1.8c-2.1-1.2-3.7-3-4.8-5.3c-1.1-2.3-1.7-5-1.7-8.1c0-4.8,1.2-8.5,3.7-11.2
	c2.4-2.7,5.9-4,10.2-4c2.8,0,5.1,0.6,7.3,1.8c2.1,1.2,3.7,3,4.8,5.3C439.8,292.1,440.4,294.8,440.4,297.9z M420.6,297.9
	c0,2.9,0.5,5.1,1.4,6.6c0.9,1.5,2.4,2.3,4.5,2.3c2.1,0,3.6-0.7,4.5-2.3c0.9-1.4,1.4-3.7,1.4-6.6c0-2.9-0.5-5.1-1.4-6.5
	c-0.9-1.4-2.4-2.2-4.5-2.2s-3.6,0.7-4.5,2.2C421.1,292.8,420.6,295,420.6,297.9z M462.5,313.1c-3.4,0-6-1.3-7.9-3.8h-0.4
	c0.3,2.4,0.4,3.9,0.4,4.3v11.9h-7.8v-42.3h6.3l1.1,3.8h0.4c1.8-2.9,4.5-4.4,8.1-4.4c3.4,0,6,1.3,7.9,4c1.9,2.7,2.8,6.4,2.8,11.2
	c0,3.1-0.4,5.9-1.3,8.2s-2.2,4.1-3.8,5.3C466.7,312.5,464.7,313.1,462.5,313.1z M460.2,289.1c-1.9,0-3.3,0.6-4.2,1.8
	c-0.9,1.2-1.4,3.2-1.4,6v0.9c0,3.1,0.4,5.4,1.4,6.8c0.9,1.4,2.3,2,4.3,2c3.5,0,5.2-3,5.2-8.8c0-2.9-0.4-5.1-1.3-6.5
	C463.4,289.8,462,289.1,460.2,289.1z M492.8,313.2c-4.6,0-8.2-1.3-10.8-3.9c-2.6-2.6-3.9-6.3-3.9-11.1c0-4.9,1.2-8.7,3.6-11.4
	c2.4-2.7,5.7-4,9.9-4c4,0,7.1,1.2,9.4,3.6c2.3,2.4,3.4,5.6,3.4,9.8v3.9h-18.4c0.1,2.3,0.8,4,2,5.4c1.2,1.3,2.9,1.9,5.1,1.9
	c1.7,0,3.4-0.2,4.9-0.6c1.5-0.4,3.1-0.9,4.8-1.7v6.2c-1.4,0.7-2.8,1.2-4.4,1.6C496.9,313,495,313.2,492.8,313.2z M491.7,288.4
	c-1.7,0-2.9,0.5-3.9,1.6c-0.9,1.1-1.4,2.6-1.6,4.6h10.9c0-2-0.6-3.5-1.5-4.6C494.6,289,493.4,288.4,491.7,288.4z M528.9,312.6
	l-1.5-4h-0.2c-1.3,1.7-2.6,2.8-4,3.5c-1.4,0.7-3.2,1-5.4,1c-2.8,0-4.9-0.8-6.5-2.4c-1.6-1.6-2.4-3.9-2.4-6.9c0-3.1,1.1-5.4,3.2-6.9
	c2.1-1.4,5.3-2.3,9.6-2.4l4.9-0.2V293c0-3-1.5-4.5-4.5-4.5c-2.3,0-4.9,0.7-8,2.1l-2.6-5.4c3.3-1.8,6.9-2.6,10.9-2.6
	c3.8,0,6.8,0.9,8.8,2.6c2,1.7,3.1,4.3,3.1,7.8v19.5H528.9z M526.6,299l-3,0.1c-2.3,0.1-4,0.5-5.1,1.3c-1.1,0.8-1.7,2-1.7,3.5
	c0,2.3,1.3,3.4,3.8,3.4c1.8,0,3.3-0.5,4.3-1.6c1.1-1.1,1.6-2.5,1.6-4.3V299z M568.7,312.6h-7.8v-17.1c0-2.1-0.4-3.7-1.1-4.8
	c-0.8-1.1-1.9-1.6-3.5-1.6c-2.2,0-3.8,0.7-4.7,2.3c-1,1.5-1.4,4-1.4,7.4v13.8h-7.8v-29.3h6l1.1,3.8h0.4c0.9-1.4,2.1-2.5,3.6-3.2
	c1.5-0.7,3.3-1.1,5.2-1.1c3.3,0,5.8,0.9,7.6,2.8c1.7,1.9,2.6,4.5,2.6,8v19.1h-0.1V312.6z M327.7,362.1v-38.4h7.9v38.4H327.7z
	 M370.7,362h-7.8v-17.1c0-2.1-0.4-3.7-1.1-4.8c-0.8-1.1-1.9-1.6-3.5-1.6c-2.2,0-3.8,0.7-4.7,2.3c-1,1.5-1.5,4-1.5,7.5v13.8h-7.8
	v-29.3h6l1.1,3.8h0.4c0.9-1.4,2.1-2.5,3.6-3.2c1.5-0.7,3.3-1.1,5.2-1.1c3.3,0,5.8,0.9,7.6,2.8c1.7,1.9,2.6,4.5,2.6,8L370.7,362z
	 M387.8,362.6c-3.4,0-6-1.3-7.9-4c-1.9-2.7-2.9-6.4-2.9-11.1c0-4.8,1-8.5,2.9-11.2c1.9-2.7,4.6-4,8-4c3.6,0,6.3,1.4,8.2,4.3h0.3
	c-0.4-2.2-0.6-4.2-0.6-5.9v-9.4h7.8v40.9h-6l-1.5-3.8h-0.3C394.1,361.1,391.4,362.6,387.8,362.6z M390.5,356.2c2,0,3.4-0.6,4.4-1.8
	c0.9-1.2,1.4-3.2,1.5-6.1v-0.9c0-3.1-0.5-5.4-1.4-6.8c-0.9-1.4-2.5-2-4.6-2c-1.7,0-3.1,0.8-4,2.3c-0.9,1.5-1.4,3.7-1.4,6.6
	c0,2.9,0.5,5.1,1.4,6.5C387.3,355.5,388.7,356.2,390.5,356.2z M432,362l-1.1-3.8h-0.4c-0.9,1.4-2,2.4-3.6,3.2
	c-1.5,0.7-3.3,1.1-5.2,1.1c-3.4,0-5.9-0.9-7.6-2.8c-1.7-1.8-2.6-4.5-2.6-8v-19.1h7.8v17.1c0,2.1,0.4,3.7,1.1,4.8
	c0.8,1.1,1.9,1.6,3.5,1.6c2.2,0,3.8-0.7,4.7-2.3c1-1.5,1.4-4,1.4-7.4v-13.8h7.8V362H432L432,362z M466.1,353.3c0,3-1,5.3-3.1,6.9
	c-2,1.6-5.1,2.4-9.1,2.4c-2.1,0-3.8-0.1-5.3-0.4c-1.4-0.3-2.8-0.7-4.1-1.3v-6.6c1.4,0.7,3.1,1.3,4.9,1.7c1.8,0.5,3.4,0.7,4.8,0.7
	c2.8,0,4.3-0.9,4.3-2.5c0-0.6-0.2-1.1-0.6-1.5c-0.4-0.4-1-0.9-1.9-1.3c-0.9-0.5-2.1-1.1-3.7-1.7c-2.2-0.9-3.8-1.8-4.8-2.6
	c-1-0.8-1.7-1.7-2.3-2.8c-0.5-1.1-0.7-2.3-0.7-3.8c0-2.6,1-4.6,2.9-6c2-1.4,4.8-2.1,8.3-2.1c3.4,0,6.8,0.8,10,2.3l-2.3,5.8
	c-1.4-0.6-2.8-1.1-4-1.5c-1.3-0.4-2.5-0.6-3.8-0.6c-2.3,0-3.4,0.6-3.4,1.9c0,0.7,0.4,1.3,1.1,1.8c0.7,0.5,2.4,1.3,4.8,2.3
	c2.3,0.9,3.9,1.8,4.9,2.6c1.1,0.8,1.8,1.7,2.3,2.8C465.9,350.6,466.1,351.9,466.1,353.3z M484.2,356.2c1.4,0,3-0.3,4.9-0.9v6
	c-1.9,0.9-4.3,1.3-7.1,1.3c-3.1,0-5.4-0.8-6.8-2.4c-1.4-1.6-2.1-4-2.1-7.3v-14.2h-3.7v-3.4l4.3-2.7l2.3-6.2h5v6.3h8v6h-8v14.2
	c0,1.1,0.3,2,0.9,2.5C482.4,355.9,483.2,356.2,484.2,356.2z M510.8,332.2c1.1,0,1.9,0.1,2.6,0.3l-0.6,7.5c-0.6-0.2-1.4-0.3-2.3-0.3
	c-2.5,0-4.4,0.7-5.8,2c-1.4,1.3-2.1,3.1-2.1,5.5V362h-7.8v-29.3h5.9l1.1,4.9h0.4c0.9-1.7,2.1-3,3.6-4
	C507.4,332.7,509,332.2,510.8,332.2z M518.3,325.1c0-2.6,1.4-3.9,4.3-3.9s4.3,1.3,4.3,3.9c0,1.3-0.3,2.2-1.1,2.9s-1.7,1.1-3.2,1.1
	C519.7,329.1,518.3,327.7,518.3,325.1z M526.4,362.1h-7.8v-29.3h7.8V362.1z M552.7,362.1l-1.5-4H551c-1.3,1.7-2.6,2.8-4,3.5
	c-1.4,0.7-3.2,1-5.4,1c-2.8,0-4.9-0.8-6.5-2.4s-2.4-3.9-2.4-6.9c0-3.1,1.1-5.4,3.2-6.9c2.1-1.4,5.3-2.3,9.6-2.4l4.9-0.2v-1.3
	c0-3-1.5-4.5-4.5-4.5c-2.3,0-4.9,0.7-8,2.1l-2.6-5.4c3.3-1.8,6.9-2.6,10.9-2.6c3.8,0,6.8,0.9,8.8,2.6c2,1.7,3.1,4.3,3.1,7.8v19.5
	H552.7z M550.4,348.4l-3,0.1c-2.3,0.1-4,0.5-5.1,1.3c-1.1,0.8-1.7,2-1.7,3.5c0,2.3,1.3,3.4,3.8,3.4c1.8,0,3.3-0.5,4.3-1.6
	c1.1-1.1,1.6-2.5,1.6-4.3V348.4z M573.9,362.1h-7.8v-40.9h7.8V362.1z M349.2,411.5h-21.5v-38.4h21.5v6.7h-13.6v8.5h12.6v6.7h-12.6
	v9.9h13.6V411.5z M381.9,411.5h-7.8v-17.1c0-2.1-0.3-3.7-1-4.8c-0.7-1.1-1.7-1.6-3.3-1.6c-2,0-3.4,0.8-4.3,2.3
	c-0.9,1.5-1.4,4-1.4,7.4v13.8h-7.8v-29.3h6l1.1,3.8h0.4c0.8-1.4,1.9-2.4,3.3-3.2c1.4-0.8,3.1-1.1,5-1.1c4.3,0,7.1,1.4,8.7,4.3h0.7
	c0.8-1.4,1.9-2.4,3.4-3.2s3.1-1.1,5.1-1.1c3.2,0,5.7,0.9,7.3,2.6c1.7,1.7,2.5,4.4,2.5,8.2v19.1h-7.8v-17.1c0-2.1-0.3-3.7-1-4.8
	c-0.7-1.1-1.7-1.6-3.3-1.6c-1.9,0-3.3,0.7-4.3,2.1c-0.9,1.4-1.4,3.6-1.4,6.7L381.9,411.5L381.9,411.5L381.9,411.5z M407.4,374.6
	c0-2.6,1.4-3.9,4.3-3.9c2.8,0,4.3,1.3,4.3,3.9c0,1.3-0.3,2.2-1.1,2.9c-0.7,0.7-1.7,1.1-3.2,1.1C408.7,378.5,407.4,377.2,407.4,374.6
	z M415.5,411.5h-7.8v-29.3h7.8V411.5z M443.6,402.8c0,3-1,5.3-3.1,6.9c-2,1.6-5.1,2.4-9.1,2.4c-2.1,0-3.8-0.1-5.3-0.4
	c-1.4-0.3-2.8-0.7-4.1-1.3v-6.6c1.4,0.7,3.1,1.3,4.9,1.7c1.8,0.5,3.4,0.7,4.8,0.7c2.8,0,4.3-0.9,4.3-2.5c0-0.6-0.2-1.1-0.6-1.5
	c-0.4-0.4-1-0.9-1.9-1.3c-0.9-0.5-2.1-1.1-3.7-1.7c-2.2-0.9-3.8-1.8-4.8-2.6c-1-0.8-1.7-1.7-2.3-2.8c-0.5-1.1-0.7-2.3-0.7-3.8
	c0-2.6,1-4.6,2.9-6c2-1.4,4.8-2.1,8.3-2.1c3.4,0,6.8,0.8,10,2.3l-2.3,5.8c-1.4-0.6-2.8-1.1-4-1.5c-1.3-0.4-2.5-0.6-3.8-0.6
	c-2.3,0-3.4,0.6-3.4,1.9c0,0.7,0.4,1.3,1.1,1.8c0.8,0.5,2.4,1.3,4.8,2.3c2.3,0.9,3.9,1.8,4.9,2.6c1.1,0.8,1.8,1.7,2.3,2.8
	C443.3,400.1,443.6,401.3,443.6,402.8z M469.5,402.8c0,3-1,5.3-3.1,6.9c-2,1.6-5.1,2.4-9.1,2.4c-2.1,0-3.8-0.1-5.3-0.4
	c-1.4-0.3-2.8-0.7-4.1-1.3v-6.6c1.4,0.7,3.1,1.3,4.9,1.7c1.8,0.5,3.4,0.7,4.8,0.7c2.8,0,4.3-0.9,4.3-2.5c0-0.6-0.2-1.1-0.6-1.5
	c-0.4-0.4-1-0.9-1.9-1.3c-0.9-0.5-2.1-1.1-3.7-1.7c-2.2-0.9-3.8-1.8-4.8-2.6c-1-0.8-1.7-1.7-2.3-2.8c-0.5-1.1-0.7-2.3-0.7-3.8
	c0-2.6,1-4.6,2.9-6c2-1.4,4.8-2.1,8.3-2.1c3.4,0,6.8,0.8,10,2.3l-2.3,5.8c-1.4-0.6-2.8-1.1-4-1.5c-1.3-0.4-2.5-0.6-3.8-0.6
	c-2.3,0-3.4,0.6-3.4,1.9c0,0.7,0.4,1.3,1.1,1.8c0.8,0.5,2.4,1.3,4.8,2.3c2.3,0.9,3.9,1.8,4.9,2.6c1.1,0.8,1.8,1.7,2.3,2.8
	C469.3,400.1,469.5,401.3,469.5,402.8z M475.3,374.6c0-2.6,1.4-3.9,4.3-3.9c2.8,0,4.3,1.3,4.3,3.9c0,1.3-0.3,2.2-1.1,2.9
	c-0.7,0.7-1.7,1.1-3.2,1.1C476.7,378.5,475.3,377.2,475.3,374.6z M483.4,411.5h-7.8v-29.3h7.8V411.5z M517.5,396.8
	c0,4.8-1.2,8.5-3.7,11.2c-2.4,2.7-5.9,4-10.2,4c-2.8,0-5.1-0.6-7.3-1.8c-2.1-1.2-3.7-3-4.8-5.3c-1.1-2.3-1.7-5-1.7-8.1
	c0-4.8,1.2-8.5,3.7-11.2c2.4-2.6,5.9-4,10.2-4c2.8,0,5.1,0.6,7.3,1.8c2.1,1.2,3.7,3,4.8,5.3C516.9,391,517.5,393.7,517.5,396.8z
	 M497.8,396.8c0,2.9,0.5,5.1,1.4,6.6c0.9,1.5,2.4,2.3,4.5,2.3c2.1,0,3.6-0.7,4.5-2.3c0.9-1.4,1.4-3.7,1.4-6.6c0-2.9-0.5-5.1-1.4-6.5
	c-0.9-1.4-2.4-2.2-4.5-2.2s-3.6,0.7-4.5,2.2C498.3,391.7,497.8,393.9,497.8,396.8z M550.3,411.5h-7.8v-17.1c0-2.1-0.4-3.7-1.1-4.8
	c-0.8-1.1-1.9-1.6-3.5-1.6c-2.2,0-3.8,0.7-4.7,2.3c-1,1.5-1.4,4-1.4,7.4v13.8H524v-29.3h6l1.1,3.8h0.4c0.9-1.4,2.1-2.5,3.6-3.2
	s3.3-1.1,5.2-1.1c3.3,0,5.8,0.9,7.6,2.8c1.7,1.9,2.6,4.5,2.6,8L550.3,411.5L550.3,411.5L550.3,411.5z M578.2,402.8
	c0,3-1,5.3-3.1,6.9c-2,1.6-5.1,2.4-9.1,2.4c-2.1,0-3.8-0.1-5.3-0.4c-1.4-0.3-2.8-0.7-4.1-1.3v-6.6c1.4,0.7,3.1,1.3,4.9,1.7
	c1.8,0.5,3.4,0.7,4.8,0.7c2.8,0,4.3-0.9,4.3-2.5c0-0.6-0.2-1.1-0.6-1.5c-0.4-0.4-1-0.9-1.9-1.3c-0.9-0.5-2.1-1.1-3.7-1.7
	c-2.2-0.9-3.8-1.8-4.8-2.6c-1-0.8-1.7-1.7-2.3-2.8c-0.5-1.1-0.7-2.3-0.7-3.8c0-2.6,1-4.6,2.9-6c2-1.4,4.8-2.1,8.3-2.1
	c3.4,0,6.8,0.8,10,2.3l-2.3,5.8c-1.4-0.6-2.8-1.1-4-1.5c-1.3-0.4-2.5-0.6-3.8-0.6c-2.3,0-3.4,0.6-3.4,1.9c0,0.7,0.4,1.3,1.1,1.8
	c0.8,0.5,2.4,1.3,4.8,2.3c2.3,0.9,3.9,1.8,4.9,2.6c1.1,0.8,1.8,1.7,2.3,2.8C578,400.1,578.2,401.3,578.2,402.8z M353.5,434.6
	c0,4.1-1.3,7.3-3.8,9.5c-2.5,2.2-6.1,3.3-10.7,3.3h-3.4V461h-7.9v-38.4h11.9c4.5,0,8,1,10.3,3C352.3,427.6,353.5,430.6,353.5,434.6z
	 M335.6,440.6h2.6c2.4,0,4.3-0.5,5.4-1.4c1.2-1,1.8-2.4,1.8-4.3c0-1.9-0.5-3.3-1.5-4.2c-1-0.9-2.6-1.4-4.8-1.4h-3.6L335.6,440.6
	L335.6,440.6z M385.9,446.2c0,4.8-1.2,8.5-3.7,11.2c-2.4,2.7-5.9,4-10.2,4c-2.8,0-5.1-0.6-7.3-1.8c-2.1-1.2-3.7-3-4.8-5.3
	c-1.1-2.3-1.7-5-1.7-8.1c0-4.8,1.2-8.5,3.7-11.2c2.4-2.7,5.9-4,10.3-4c2.8,0,5.1,0.6,7.3,1.8c2.1,1.2,3.7,3,4.8,5.3
	C385.3,440.4,385.9,443.1,385.9,446.2z M366.1,446.2c0,2.9,0.5,5.1,1.4,6.6c0.9,1.5,2.4,2.3,4.5,2.3c2.1,0,3.6-0.7,4.5-2.3
	c0.9-1.4,1.4-3.7,1.4-6.6c0-2.9-0.5-5.1-1.4-6.5c-0.9-1.4-2.4-2.2-4.5-2.2c-2.1,0-3.6,0.7-4.5,2.2
	C366.6,441.1,366.1,443.3,366.1,446.2z M408.2,431c1.1,0,1.9,0.1,2.6,0.3l-0.6,7.5c-0.6-0.2-1.4-0.3-2.3-0.3c-2.5,0-4.4,0.7-5.8,2
	c-1.4,1.3-2.1,3.1-2.1,5.5v14.9h-7.8v-29.3h5.9l1.1,4.9h0.4c0.9-1.7,2.1-3,3.6-4C404.8,431.5,406.4,431,408.2,431z M428,455.1
	c1.4,0,3-0.3,4.9-0.9v6c-1.9,0.9-4.3,1.3-7.1,1.3c-3.1,0-5.4-0.8-6.8-2.4c-1.4-1.6-2.1-4-2.1-7.3v-14.2h-3.7v-3.4l4.3-2.7l2.3-6.2h5
	v6.2h8v6h-8v14.2c0,1.1,0.3,2,0.9,2.5C426.2,454.8,427,455.1,428,455.1z M456.8,460.9l-1.5-4h-0.2c-1.3,1.7-2.6,2.8-4,3.5
	s-3.2,1-5.4,1c-2.8,0-4.9-0.8-6.5-2.4c-1.6-1.6-2.4-3.9-2.4-6.9c0-3.1,1.1-5.4,3.2-6.9c2.1-1.4,5.3-2.3,9.6-2.4l4.9-0.2v-1.3
	c0-3-1.5-4.5-4.5-4.5c-2.3,0-4.9,0.7-8,2.1l-2.6-5.4c3.3-1.8,6.9-2.6,10.9-2.6c3.8,0,6.8,0.9,8.8,2.6c2,1.7,3.1,4.3,3.1,7.8v19.5
	H456.8z M454.5,447.4l-3,0.1c-2.3,0.1-4,0.5-5.1,1.3c-1.1,0.8-1.7,2-1.7,3.5c0,2.3,1.3,3.4,3.8,3.4c1.8,0,3.3-0.5,4.3-1.6
	c1.1-1.1,1.6-2.5,1.6-4.3C454.5,449.7,454.5,447.4,454.5,447.4z M478.1,460.9h-7.8v-40.8h7.8V460.9z"/>
<path class="st1" d="M550.6,219c-10.2-22.5-57.8-25-122.4-10.4c0,0.2-0.1,0.3-0.2,0.6c-1.4,3.9-3,7.7-4.9,11.2
	c27.1-6.5,51.2-10.1,70.1-10.1c23.6,0,39.6,5.3,44.7,16.5c3.7,8.3,1,19.6-7.4,33h5.7C549.4,243.5,555.3,229.5,550.6,219z"/>
<path class="st1" d="M247.2,276.5c-51.3,26.5-96.6,56.1-129.6,84.6c-39.6,34.3-56.8,63.6-48.3,82.4c4,8.8,13.1,14.5,26.5,17.4
	C87.5,458.3,81.6,454,79,448c-7.3-16.2,4.8-45,41.9-77.3c31.9-27.7,75.6-56.3,125.2-82.2l0.1-1.3L247.2,276.5z"/>
</svg>
